<?xml version="1.0" encoding="UTF-8"?>
<svg version="1.1" xmlns="http://www.w3.org/2000/svg" width="48" height="48">
<path d="M0 0 C5.62190352 3.30286832 11.06151614 8.41318408 13.6875 14.4375 C14.25045248 18.21732379 13.92663484 19.9879265 12.125 23.375 C6.94093435 29.88831326 1.99768754 35.69826276 -6.6796875 36.90625 C-14.32641363 36.97437228 -19.51863099 36.62217026 -25.3125 31.4375 C-25.96089844 30.86 -26.60929687 30.2825 -27.27734375 29.6875 C-31.11923742 26.04202216 -33.84255842 23.02217869 -34.8125 17.6875 C-33.75485672 10.8128187 -28.2116983 6.03441365 -23.12109375 1.6640625 C-16.50002381 -2.82625275 -7.26840326 -3.30769133 0 0 Z " fill="#F8F8F8" transform="translate(34.3125,7.5625)"/>
<path d="M0 0 C5.62190352 3.30286832 11.06151614 8.41318408 13.6875 14.4375 C14.25045248 18.21732379 13.92663484 19.9879265 12.125 23.375 C6.94093435 29.88831326 1.99768754 35.69826276 -6.6796875 36.90625 C-14.32641363 36.97437228 -19.51863099 36.62217026 -25.3125 31.4375 C-25.96089844 30.86 -26.60929687 30.2825 -27.27734375 29.6875 C-31.11923742 26.04202216 -33.84255842 23.02217869 -34.8125 17.6875 C-33.75485672 10.8128187 -28.2116983 6.03441365 -23.12109375 1.6640625 C-16.50002381 -2.82625275 -7.26840326 -3.30769133 0 0 Z M-30.3125 12.4375 C-31.78235196 14.80946406 -31.78235196 14.80946406 -32.3125 17.4375 C-29.21793422 24.49851319 -22.30660111 29.63776238 -15.3125 32.4375 C-9.57942628 33.7481716 -5.25640469 32.77142432 -0.125 30 C4.65317266 26.80445505 9.34150234 22.79047085 11.6875 17.4375 C10.11288973 10.47203651 3.35283148 5.30890295 -2.25 1.375 C-14.11035613 -2.25572126 -22.98170805 3.08578702 -30.3125 12.4375 Z " fill="#070707" transform="translate(34.3125,7.5625)"/>
<path d="M0 0 C0.721875 0.103125 1.44375 0.20625 2.1875 0.3125 C2.1875 1.9625 2.1875 3.6125 2.1875 5.3125 C3.8375 5.6425 5.4875 5.9725 7.1875 6.3125 C7.875 8 7.875 8 8.1875 10.3125 C5.92596154 14.94326923 5.92596154 14.94326923 3.1875 16.3125 C-0.86513598 16.85285146 -2.34980231 16.65449395 -5.6875 14.1875 C-7.8125 11.3125 -7.8125 11.3125 -8.4375 8.3125 C-7.44304738 3.5391274 -4.96626208 0.5518069 0 0 Z " fill="#0B0B0B" transform="translate(23.8125,15.6875)"/>
</svg>
