<?xml version="1.0" encoding="UTF-8"?>
<svg version="1.1" xmlns="http://www.w3.org/2000/svg" width="48" height="48">
<path d="M0 0 C2.86724686 0.57344937 3.8614515 0.8614515 6 3 C8.3088437 2.6815388 10.14900271 1.93292318 12.2734375 0.9765625 C18.25672728 -1.1664496 25.49249401 -1.08605742 31.3125 1.5625 C36.93440352 4.86536832 42.37401614 9.97568408 45 16 C45.58777768 19.94650727 45.21367154 21.61844368 43.25 25.125 C41.29452433 27.62366335 39.32199605 29.84386081 37 32 C38.00313062 34.23775292 38.84476835 35.8507388 40.625 37.5625 C42 39 42 39 42 42 C37.62140745 41.49477778 35.18348776 38.82172778 32 36 C31.47921875 36.32097656 30.9584375 36.64195313 30.421875 36.97265625 C24.84720249 39.33739636 17.21645248 39.14909945 11.55078125 37.125 C9.49594488 35.89774999 7.78312957 34.59564167 6 33 C5.35160156 32.4225 4.70320312 31.845 4.03515625 31.25 C0.19326258 27.60452216 -2.53005842 24.58467869 -3.5 19.25 C-2.76895657 14.49821771 -0.06342012 11.59222478 3 8 C2.68289062 7.38640625 2.36578125 6.7728125 2.0390625 6.140625 C1.04371515 4.09005979 0.47588139 2.22077983 0 0 Z " fill="#060606" transform="translate(3,6)"/>
<path d="M0 0 C6.49416559 2.58145976 13.36844062 8.2890022 16.1953125 14.71875 C16.59363281 15.84796875 16.59363281 15.84796875 17 17 C15.76238177 18.65516419 14.50942545 20.29886798 13.25 21.9375 C12.55390625 22.85402344 11.8578125 23.77054688 11.140625 24.71484375 C9 27 9 27 7.21875 27.96044922 C5 28 5 28 2.34277344 25.94213867 C1.33513255 24.94725126 0.34146094 23.93809047 -0.640625 22.91796875 C-1.43119293 22.12390373 -1.43119293 22.12390373 -2.23773193 21.313797 C-3.3496221 20.19216083 -4.4554695 19.06450696 -5.55566406 17.93139648 C-7.24512924 16.19251324 -8.95255584 14.47302513 -10.6640625 12.75585938 C-11.74068654 11.66515036 -12.8162448 10.57338808 -13.890625 9.48046875 C-14.40304749 8.96268356 -14.91546997 8.44489838 -15.44342041 7.91142273 C-19 4.23323922 -19 4.23323922 -19 2 C-17.88625 1.855625 -16.7725 1.71125 -15.625 1.5625 C-3.04697987 -0.38926174 -3.04697987 -0.38926174 0 0 Z " fill="#F2F2F2" transform="translate(29,8)"/>
<path d="M0 0 C2.89950895 1.29977987 4.95898854 2.55078625 7 5 C7.65767997 7.30599039 8.00188456 9.57445515 8.375 11.94140625 C8.87623292 14.37611315 8.87623292 14.37611315 12 16 C13.11375 16.0825 14.2275 16.165 15.375 16.25 C20.25434703 17.25952007 21.19891424 19.01057482 24 23 C19.35577763 25.62960536 15.22833357 25.83263275 10 25 C3.00670812 22.26710882 -3.92224542 17.02265431 -7 10 C-5.85187377 5.50204664 -3.3705873 3.1044883 0 0 Z " fill="#F8F8F8" transform="translate(9,15)"/>
<path d="M0 0 C2.89636446 1.30889621 4.94305832 2.70221909 7.1640625 4.96875 C8.01097656 5.82533203 8.01097656 5.82533203 8.875 6.69921875 C9.4525 7.29347656 10.03 7.88773438 10.625 8.5 C11.21023437 9.09425781 11.79546875 9.68851563 12.3984375 10.30078125 C13.48228677 11.40203177 14.56406561 12.50532667 15.64306641 13.61132812 C16.75427589 14.74852847 17.87571998 15.87571998 19 17 C18.01 17.33 17.02 17.66 16 18 C15.360625 17.21625 14.72125 16.4325 14.0625 15.625 C11.65542102 13.16274443 9.74155028 12.53611987 6.375 11.9375 C2.21589921 11.18318721 2.21589921 11.18318721 -0.0625 9.25 C-1.26715572 6.35882626 -1.27562023 4.10072757 -1 1 C-0.67 0.67 -0.34 0.34 0 0 Z " fill="#0F0F0F" transform="translate(17,20)"/>
<path d="M0 0 C1.65 0 3.3 0 5 0 C5 1.65 5 3.3 5 5 C6.65 5.33 8.3 5.66 10 6 C11.125 9.75 11.125 9.75 10 12 C6.78475695 10.59155282 4.67816132 8.89655214 2.25 6.375 C1.63640625 5.74335938 1.0228125 5.11171875 0.390625 4.4609375 C-0.06828125 3.97882812 -0.5271875 3.49671875 -1 3 C-0.67 2.01 -0.34 1.02 0 0 Z " fill="#090909" transform="translate(21,16)"/>
</svg>
